<svg width="41" height="41" viewBox="0 0 41 41" fill="none" xmlns="http://www.w3.org/2000/svg">
<path fill-rule="evenodd" clip-rule="evenodd" d="M30.75 6.83333C31.1684 6.83338 31.5723 6.987 31.8849 7.26505C32.1976 7.5431 32.3974 7.92623 32.4464 8.34179L32.4583 8.54166V11.2152L32.6565 11.3877L33.1297 11.7824C33.2162 11.8541 33.3062 11.9259 33.3996 11.9976C34.3101 12.7066 35.4103 13.419 36.4148 13.7538C36.6277 13.8247 36.8246 13.9368 36.9941 14.0838C37.1637 14.2307 37.3027 14.4097 37.4031 14.6103C37.5035 14.811 37.5634 15.0295 37.5794 15.2533C37.5953 15.4771 37.5671 15.7019 37.4962 15.9148C37.4253 16.1277 37.3132 16.3246 37.1662 16.4941C37.0192 16.6637 36.8403 16.8027 36.6396 16.9031C36.439 17.0035 36.2205 17.0634 35.9966 17.0794C35.7728 17.0954 35.548 17.0671 35.3351 16.9962C34.4785 16.695 33.6589 16.2973 32.8922 15.8106L32.4583 15.5305V23.9167H37.5833C38.0187 23.9171 38.4375 24.0839 38.7542 24.3828C39.0708 24.6817 39.2613 25.0902 39.2868 25.5249C39.3123 25.9595 39.1709 26.3876 38.8914 26.7215C38.612 27.0554 38.2156 27.2699 37.7832 27.3214L37.5833 27.3333H32.4583V32.4583C32.4578 32.8937 32.2911 33.3125 31.9922 33.6292C31.6933 33.9458 31.2848 34.1363 30.8501 34.1618C30.4154 34.1873 29.9874 34.0459 29.6535 33.7665C29.3196 33.487 29.105 33.0906 29.0536 32.6582L29.0416 32.4583V27.3333H11.9583V32.4583C11.9578 32.8937 11.7911 33.3125 11.4922 33.6292C11.1933 33.9458 10.7848 34.1363 10.3501 34.1618C9.91543 34.1873 9.48741 34.0459 9.15352 33.7665C8.81962 33.487 8.60503 33.0906 8.5536 32.6582L8.54165 32.4583V27.3333H3.41665C2.98123 27.3328 2.56242 27.1661 2.24581 26.8672C1.92919 26.5683 1.73866 26.1598 1.71314 25.7251C1.68763 25.2904 1.82905 24.8624 2.10851 24.5285C2.38798 24.1946 2.7844 23.98 3.21677 23.9286L3.41665 23.9167H8.54165V15.5287C7.69431 16.0942 6.70006 16.6511 5.66481 16.9962C5.45191 17.0671 5.22713 17.0954 5.00331 17.0794C4.77949 17.0634 4.561 17.0035 4.36033 16.9031C3.95506 16.7003 3.64694 16.3448 3.50377 15.9148C3.3606 15.4849 3.3941 15.0156 3.59689 14.6103C3.79969 14.2051 4.15517 13.897 4.58515 13.7538C5.58965 13.419 6.68981 12.7066 7.60035 11.9976L7.87027 11.7824L8.34348 11.3877L8.54165 11.2152V8.54166C8.54213 8.10624 8.70886 7.68744 9.00776 7.37082C9.30667 7.05421 9.71519 6.86368 10.1499 6.83816C10.5845 6.81264 11.0125 6.95406 11.3464 7.23353C11.6803 7.513 11.8949 7.90941 11.9464 8.34179L11.9583 8.54166V11.4834C12.4078 12.1247 12.9469 12.6982 13.559 13.1866C14.8796 14.2441 17.0714 15.375 20.5 15.375C23.9286 15.375 26.1204 14.2441 27.4409 13.1883C28.1123 12.6502 28.5753 12.1189 28.8623 11.7345L29.0416 11.4834V8.54166C29.0416 8.08858 29.2216 7.65406 29.542 7.33369C29.8624 7.01331 30.2969 6.83333 30.75 6.83333ZM29.0416 16.2582C28.1603 16.8844 27.2042 17.398 26.1956 17.7872L25.625 17.9939V23.9167H29.0416V16.2582ZM22.2083 18.7114C21.2561 18.8025 20.2981 18.8174 19.3434 18.7558L18.7916 18.7114V23.9167H22.2083V18.7114ZM11.9583 16.2582V23.9167H15.375V17.9939L14.8044 17.7889C13.9493 17.4587 13.1316 17.039 12.3649 16.5367L11.9583 16.2582Z" fill="white"/>
</svg>
