<svg width="41" height="41" viewBox="0 0 41 41" fill="none" xmlns="http://www.w3.org/2000/svg">
<path d="M34.7475 5.289C35.7027 6.2387 36.4607 7.36785 36.9779 8.61151C37.4951 9.85518 37.7614 11.1888 37.7614 12.5358C37.7614 13.8827 37.4951 15.2163 36.9779 16.46C36.4607 17.7037 35.7027 18.8328 34.7475 19.7825C31.652 22.878 27.06 23.5545 23.288 21.853L19.4545 28.6385L13.325 29.274L10.25 36.9H4.10005L2.05005 32.8L18.3475 17.0355C16.4615 13.202 17.0765 8.4665 20.254 5.289C21.2037 4.33386 22.3329 3.57587 23.5766 3.05865C24.8202 2.54142 26.1539 2.27515 27.5008 2.27515C28.8477 2.27515 30.1814 2.54142 31.425 3.05865C32.6687 3.57587 33.7979 4.33386 34.7475 5.289ZM29.602 13.0585C31.119 13.0585 32.3285 11.8285 32.3285 10.3115C32.3285 9.58839 32.0413 8.8949 31.53 8.38358C31.0187 7.87226 30.3252 7.585 29.602 7.585C28.8789 7.585 28.1854 7.87226 27.6741 8.38358C27.1628 8.8949 26.8755 9.58839 26.8755 10.3115C26.8755 11.8285 28.1055 13.0585 29.602 13.0585Z" fill="white"/>
</svg>
