<svg width="41" height="41" viewBox="0 0 41 41" fill="none" xmlns="http://www.w3.org/2000/svg">
<path d="M6.83333 15.375H29.0417L26.3083 17.425C26.1289 17.5596 25.9777 17.7282 25.8634 17.9213C25.7491 18.1143 25.6739 18.328 25.6422 18.5501C25.6104 18.7722 25.6228 18.9983 25.6784 19.2156C25.7341 19.433 25.8321 19.6372 25.9667 19.8167C26.1258 20.0288 26.3321 20.201 26.5693 20.3196C26.8066 20.4383 27.0681 20.5 27.3333 20.5C27.703 20.5 28.0626 20.3801 28.3583 20.1583L35.1917 15.0333C35.4006 14.8739 35.5699 14.6684 35.6865 14.4329C35.8031 14.1973 35.8637 13.938 35.8637 13.6752C35.8637 13.4124 35.8031 13.1531 35.6865 12.9176C35.5699 12.682 35.4006 12.4765 35.1917 12.3171L28.5975 7.19209C28.2396 6.91344 27.7856 6.7884 27.3355 6.84447C26.8854 6.90053 26.4759 7.13311 26.1973 7.49104C25.9186 7.84898 25.7936 8.30294 25.8497 8.75306C25.9057 9.20319 26.1383 9.61261 26.4963 9.89125L29.1783 11.9583H6.83333C6.38026 11.9583 5.94573 12.1383 5.62536 12.4587C5.30498 12.7791 5.125 13.2136 5.125 13.6667C5.125 14.1197 5.30498 14.5543 5.62536 14.8746C5.94573 15.195 6.38026 15.375 6.83333 15.375ZM34.1667 27.3333H11.9583L14.6917 25.2833C15.0541 25.0115 15.2938 24.6068 15.3578 24.1583C15.4219 23.7097 15.3052 23.2541 15.0333 22.8917C14.7615 22.5292 14.3568 22.2896 13.9083 22.2255C13.4597 22.1614 13.0041 22.2782 12.6417 22.55L5.80833 27.675C5.59939 27.8344 5.43005 28.0399 5.31349 28.2755C5.19693 28.511 5.13629 28.7703 5.13629 29.0331C5.13629 29.2959 5.19693 29.5552 5.31349 29.7908C5.43005 30.0263 5.59939 30.2318 5.80833 30.3913L12.4025 35.5163C12.7007 35.7477 13.0671 35.8738 13.4446 35.875C13.7055 35.8744 13.9628 35.814 14.1967 35.6985C14.4306 35.583 14.635 35.4155 14.7942 35.2088C15.0716 34.8526 15.1968 34.4012 15.1423 33.953C15.0879 33.5049 14.8583 33.0965 14.5037 32.8171L11.8217 30.75H34.1667C34.6197 30.75 35.0543 30.57 35.3746 30.2496C35.695 29.9293 35.875 29.4947 35.875 29.0417C35.875 28.5886 35.695 28.1541 35.3746 27.8337C35.0543 27.5133 34.6197 27.3333 34.1667 27.3333Z" fill="white"/>
</svg>
