<svg width="36" height="31" viewBox="0 0 36 31" fill="none" xmlns="http://www.w3.org/2000/svg">
<g clip-path="url(#clip0_10_236)">
<path d="M20.3554 28.5818L18.7945 30.1176C18.1336 30.7679 17.0648 30.7679 16.4109 30.1176L2.74216 16.676C2.08123 16.0258 2.08123 14.9742 2.74216 14.3309L16.4039 0.889339C17.0648 0.239056 18.1336 0.239056 18.7875 0.889339L20.3484 2.42512C21.0164 3.08232 21.0023 4.1546 20.3203 4.79797L11.8547 12.7328L32.0625 12.7328C32.9976 12.7328 33.75 13.473 33.75 14.3931V16.6069C33.75 17.5269 32.9976 18.2672 32.0625 18.2672L11.8547 18.2672L20.3273 26.2089C21.0164 26.8523 21.0304 27.9246 20.3554 28.5818Z" fill="white"/>
</g>
<defs>
<clipPath id="clip0_10_236">
<rect width="31" height="36" fill="white" transform="matrix(0 -1 1 0 0 31)"/>
</clipPath>
</defs>
</svg>
