<svg width="41" height="41" viewBox="0 0 41 41" fill="none" xmlns="http://www.w3.org/2000/svg">
<path d="M7.2485 8.90041L31.8314 30.2067M34.1667 22.2083C34.1667 30.75 28.1875 35.0208 21.0809 37.4979C20.7087 37.624 20.3045 37.618 19.9363 37.4808C12.8125 35.0208 6.83337 30.75 6.83337 22.2083V10.25C6.83337 9.79692 7.01336 9.3624 7.33373 9.04202C7.65411 8.72165 8.08863 8.54166 8.54171 8.54166C11.9584 8.54166 16.2292 6.49166 19.2017 3.89499C19.5636 3.58578 20.024 3.41589 20.5 3.41589C20.9761 3.41589 21.4365 3.58578 21.7984 3.89499C24.788 6.50875 29.0417 8.54166 32.4584 8.54166C32.9115 8.54166 33.346 8.72165 33.6664 9.04202C33.9867 9.3624 34.1667 9.79692 34.1667 10.25V22.2083Z" stroke="white" stroke-width="3.41667" stroke-linecap="round" stroke-linejoin="round"/>
</svg>
