<svg width="41" height="41" viewBox="0 0 41 41" fill="none" xmlns="http://www.w3.org/2000/svg">
<path d="M22.3279 17.7837C23.3656 16.3338 23.9236 14.5955 23.9236 12.8125C23.9236 11.0295 23.3656 9.29117 22.3279 7.84125C23.2996 7.17932 24.4493 6.82786 25.625 6.83333C27.2108 6.83333 28.7316 7.46328 29.8529 8.58459C30.9742 9.7059 31.6042 11.2267 31.6042 12.8125C31.6042 14.3983 30.9742 15.9191 29.8529 17.0404C28.7316 18.1617 27.2108 18.7917 25.625 18.7917C24.4493 18.7971 23.2996 18.4457 22.3279 17.7837ZM9.39585 12.8125C9.39585 11.6299 9.74653 10.4739 10.4035 9.49065C11.0605 8.50738 11.9943 7.74102 13.0869 7.28847C14.1794 6.83592 15.3817 6.71751 16.5415 6.94822C17.7013 7.17893 18.7667 7.74839 19.6029 8.58459C20.4391 9.42079 21.0086 10.4862 21.2393 11.646C21.47 12.8059 21.3516 14.0081 20.8991 15.1006C20.4465 16.1932 19.6801 17.127 18.6969 17.784C17.7136 18.441 16.5576 18.7917 15.375 18.7917C13.7892 18.7917 12.2684 18.1617 11.1471 17.0404C10.0258 15.9191 9.39585 14.3983 9.39585 12.8125ZM12.8125 12.8125C12.8125 13.3193 12.9628 13.8147 13.2444 14.2361C13.526 14.6575 13.9262 14.986 14.3944 15.1799C14.8626 15.3739 15.3779 15.4246 15.8749 15.3258C16.372 15.2269 16.8286 14.9828 17.187 14.6245C17.5454 14.2661 17.7894 13.8095 17.8883 13.3124C17.9872 12.8153 17.9364 12.3001 17.7425 11.8319C17.5485 11.3636 17.2201 10.9634 16.7987 10.6819C16.3773 10.4003 15.8818 10.25 15.375 10.25C14.6954 10.25 14.0436 10.52 13.5631 11.0005C13.0825 11.4811 12.8125 12.1329 12.8125 12.8125ZM27.3334 29.0417V32.4583H3.41669V29.0417C3.41669 29.0417 3.41669 22.2083 15.375 22.2083C27.3334 22.2083 27.3334 29.0417 27.3334 29.0417ZM23.9167 29.0417C23.6775 27.7092 21.6446 25.625 15.375 25.625C9.10544 25.625 6.95294 27.8629 6.83335 29.0417M27.2479 22.2083C28.295 23.0227 29.1511 24.0565 29.7561 25.237C30.3611 26.4175 30.7003 27.7161 30.75 29.0417V32.4583H37.5834V29.0417C37.5834 29.0417 37.5834 22.8404 27.2309 22.2083H27.2479Z" fill="white"/>
</svg>
