<svg width="41" height="41" viewBox="0 0 41 41" fill="none" xmlns="http://www.w3.org/2000/svg">
<path fill-rule="evenodd" clip-rule="evenodd" d="M30.7346 10.2671L9.22329 18.0451L16.3897 22.193L22.7089 15.8721C23.0294 15.5518 23.4641 15.3719 23.9173 15.3721C24.3704 15.3722 24.805 15.5524 25.1253 15.873C25.4456 16.1935 25.6255 16.6282 25.6253 17.0814C25.6252 17.5345 25.445 17.9691 25.1245 18.2894L18.8036 24.6102L22.9549 31.775L30.7346 10.2671ZM31.2864 6.43358C33.3279 5.69387 35.3061 7.67212 34.5664 9.71358L25.543 34.6638C24.8016 36.7104 22.0067 36.9598 20.9151 35.0755L15.4194 25.5806L5.9245 20.0849C4.04021 18.9932 4.28962 16.1984 6.33621 15.457L31.2864 6.43358Z" fill="white"/>
</svg>
