<svg width="41" height="41" viewBox="0 0 41 41" fill="none" xmlns="http://www.w3.org/2000/svg">
<path d="M23.9167 13.6667V10.25C23.9167 9.34384 23.5567 8.4748 22.9159 7.83405C22.2752 7.1933 21.4062 6.83333 20.5 6.83333H8.54167C7.63551 6.83333 6.76647 7.1933 6.12572 7.83405C5.48497 8.4748 5.125 9.34384 5.125 10.25V30.75C5.125 31.6562 5.48497 32.5252 6.12572 33.1659C6.76647 33.8067 7.63551 34.1667 8.54167 34.1667H20.5C21.4062 34.1667 22.2752 33.8067 22.9159 33.1659C23.5567 32.5252 23.9167 31.6562 23.9167 30.75V27.3333" stroke="white" stroke-width="3.41667" stroke-linecap="round" stroke-linejoin="round"/>
<path d="M15.375 20.5H35.875M35.875 20.5L30.75 15.375M35.875 20.5L30.75 25.625" stroke="white" stroke-width="3.41667" stroke-linecap="round" stroke-linejoin="round"/>
</svg>
