<svg width="41" height="41" viewBox="0 0 41 41" fill="none" xmlns="http://www.w3.org/2000/svg">
<path d="M24.3181 32.4583C25.7958 32.4583 26.5765 34.2077 25.5908 35.3078C24.9499 36.0237 24.1652 36.5964 23.288 36.9885C22.4108 37.3806 21.4608 37.5833 20.5 37.5833C19.5391 37.5833 18.5891 37.3806 17.7119 36.9885C16.8347 36.5964 16.05 36.0237 15.4091 35.3078C14.4661 34.2555 15.1392 32.6104 16.4922 32.4703L16.6801 32.46L24.3181 32.4583ZM20.5 3.41667C22.8199 3.41667 24.781 4.9593 25.4114 7.07421L25.49 7.36634L25.5037 7.4398C27.3872 8.50189 28.9922 9.99523 30.1871 11.7974C31.382 13.5996 32.1328 15.6593 32.378 17.8077L32.4258 18.298L32.4583 18.7917V23.7988L32.4942 24.0311C32.7281 25.2899 33.4246 26.4155 34.4468 27.1864L34.7321 27.3863L35.0088 27.5554C36.478 28.3874 35.9655 30.5723 34.3648 30.7398L34.1666 30.75H6.83328C5.07712 30.75 4.46383 28.4198 5.99108 27.5554C6.642 27.1871 7.20441 26.6807 7.63883 26.0719C8.07325 25.463 8.36914 24.7665 8.50574 24.0311L8.54162 23.7868L8.54333 18.7131C8.64749 16.4818 9.29697 14.31 10.4349 12.3879C11.5729 10.4658 13.1647 8.85191 15.0709 7.68751L15.4945 7.43809L15.5116 7.36463C15.7526 6.34275 16.3016 5.41954 17.0844 4.71987C17.8672 4.02019 18.846 3.5778 19.8884 3.45255L20.1993 3.4235L20.5 3.41667Z" fill="white"/>
</svg>
