<svg width="67" height="67" viewBox="0 0 67 67" fill="none" xmlns="http://www.w3.org/2000/svg">
<path fill-rule="evenodd" clip-rule="evenodd" d="M33.5 67C52.002 67 67 52.002 67 33.5C67 14.998 52.002 0 33.5 0C14.998 0 0 14.998 0 33.5C0 52.002 14.998 67 33.5 67ZM51.4929 22.8972C51.6496 22.7358 51.7722 22.5444 51.8533 22.3346C51.9344 22.1247 51.9724 21.9006 51.9651 21.6758C51.9577 21.4509 51.9051 21.2298 51.8104 21.0257C51.7157 20.8216 51.5809 20.6386 51.4139 20.4878C51.247 20.3369 51.0514 20.2213 50.8387 20.1477C50.6261 20.0741 50.4008 20.0441 50.1763 20.0595C49.9519 20.0749 49.7328 20.1354 49.5322 20.2373C49.3316 20.3392 49.1536 20.4805 49.0088 20.6528L28.944 42.8247L17.9057 32.2873C17.5846 31.9803 17.1546 31.8135 16.7104 31.8236C16.2663 31.8336 15.8443 32.0197 15.5373 32.3409C15.2303 32.6621 15.0635 33.0921 15.0736 33.5362C15.0836 33.9804 15.2697 34.4024 15.5909 34.7094L27.8753 46.4343L29.1199 47.6236L30.2739 46.3472L51.4929 22.8972Z" fill="#66FF66"/>
</svg>
