<svg width="64" height="64" viewBox="0 0 64 64" fill="none" xmlns="http://www.w3.org/2000/svg">
<path fill-rule="evenodd" clip-rule="evenodd" d="M63.6666 32C63.6666 49.4895 49.4894 63.6667 31.9999 63.6667C14.5104 63.6667 0.333252 49.4895 0.333252 32C0.333252 14.5105 14.5104 0.333344 31.9999 0.333344C49.4894 0.333344 63.6666 14.5105 63.6666 32ZM19.6848 44.3152C19.3879 44.0183 19.2212 43.6156 19.2212 43.1958C19.2212 42.7759 19.3879 42.3733 19.6848 42.0763L29.7611 32L19.6848 21.9237C19.3963 21.6251 19.2367 21.2251 19.2404 20.81C19.244 20.3948 19.4105 19.9977 19.704 19.7041C19.9976 19.4106 20.3947 19.2441 20.8099 19.2404C21.225 19.2368 21.625 19.3964 21.9236 19.6848L31.9999 29.7612L42.0763 19.6848C42.3749 19.3964 42.7748 19.2368 43.19 19.2404C43.6051 19.2441 44.0022 19.4106 44.2958 19.7041C44.5894 19.9977 44.7559 20.3948 44.7595 20.81C44.7631 21.2251 44.6035 21.6251 44.3151 21.9237L34.2388 32L44.3151 42.0763C44.6035 42.375 44.7631 42.7749 44.7595 43.1901C44.7559 43.6052 44.5894 44.0023 44.2958 44.2959C44.0022 44.5895 43.6051 44.756 43.19 44.7596C42.7748 44.7632 42.3749 44.6036 42.0763 44.3152L31.9999 34.2388L21.9236 44.3152C21.6267 44.612 21.224 44.7788 20.8042 44.7788C20.3843 44.7788 19.9817 44.612 19.6848 44.3152Z" fill="#FF0000"/>
</svg>
