<svg width="41" height="41" viewBox="0 0 41 41" fill="none" xmlns="http://www.w3.org/2000/svg">
<g clip-path="url(#clip0_91_2)">
<path d="M22.55 18.45H30.75V22.55H22.55V30.75H18.45V22.55H10.25V18.45H18.45V10.25H22.55V18.45ZM20.5 41C15.0631 41 9.84881 38.8402 6.00431 34.9957C2.15982 31.1512 0 25.9369 0 20.5C0 15.0631 2.15982 9.84881 6.00431 6.00431C9.84881 2.15982 15.0631 0 20.5 0C25.9369 0 31.1512 2.15982 34.9957 6.00431C38.8402 9.84881 41 15.0631 41 20.5C41 25.9369 38.8402 31.1512 34.9957 34.9957C31.1512 38.8402 25.9369 41 20.5 41ZM20.5 36.9C24.8496 36.9 29.021 35.1721 32.0966 32.0966C35.1721 29.021 36.9 24.8496 36.9 20.5C36.9 16.1504 35.1721 11.979 32.0966 8.90345C29.021 5.82785 24.8496 4.1 20.5 4.1C16.1504 4.1 11.979 5.82785 8.90345 8.90345C5.82785 11.979 4.1 16.1504 4.1 20.5C4.1 24.8496 5.82785 29.021 8.90345 32.0966C11.979 35.1721 16.1504 36.9 20.5 36.9Z" fill="white"/>
</g>
<defs>
<clipPath id="clip0_91_2">
<rect width="41" height="41" fill="white"/>
</clipPath>
</defs>
</svg>
